<svg id="圖層_1" data-name="圖層 1" xmlns="http://www.w3.org/2000/svg" viewBox="0 0 349 437"><defs><style>.cls-1{fill:none;stroke:#baa544;stroke-miterlimit:10;}.cls-2{fill:#baa544;}</style></defs><title>未命名-1</title><rect class="cls-1" x="40.62" y="212.77" width="203.61" height="189.76"/><polygon class="cls-1" points="244.23 212.77 40.62 212.77 110.11 145.66 313.71 145.66 244.23 212.77"/><polygon class="cls-1" points="313.71 336.26 244.23 402.53 244.23 212.77 313.71 146.5 313.71 336.26"/><ellipse class="cls-1" cx="176.29" cy="179.45" rx="63.09" ry="15.06"/><path class="cls-2" d="M94.4,277c.7-.35,1.23-.37,1.58-.07a2.48,2.48,0,0,1,.68,1.57,7.46,7.46,0,0,0,1.16,3.76c.62.85,1.89,1.5,3.79,1.95a1.91,1.91,0,0,1,1.43,1.16c.15.53-.13,1.19-.83,2a3.56,3.56,0,0,1-1.2.68c-.45.15-.9.32-1.35.52l-2,1.05a6.31,6.31,0,0,0-2.52,2.86,10.5,10.5,0,0,0-1.09,3.45,1.31,1.31,0,0,0,1.24.79,5.39,5.39,0,0,1,1.47.11,6.15,6.15,0,0,1,3.26,1.16c.53.53.64,1.69.34,3.49A34.37,34.37,0,0,1,98.57,306q-1.09,2.21-2.52,4.61a2.59,2.59,0,0,1-1.2.87,1.74,1.74,0,0,1-1-.12c-1.35.1-2,.73-2,1.88s.74,1.68,2.14,1.58c2.35-.36,4.62-.73,6.8-1.13a19.54,19.54,0,0,1,7,.07c1.15.3,1.67.72,1.57,1.24s-.67,1-1.72,1.47a95.41,95.41,0,0,1-9.43,1.65,51,51,0,0,0-9.34,2.1,10.36,10.36,0,0,0-3.08,3.83q-1,2.25-1.88,4.28l-1.35,2.4q-3.15,3.75-5.25,4.43a10.78,10.78,0,0,1-5.71-.23,2.18,2.18,0,0,1-1.31-2.14c.07-.87.66-1.41,1.76-1.61A9,9,0,0,0,77.21,329a13.85,13.85,0,0,0,3.68-4.88c.15-.65.1-1-.15-1.16a1.63,1.63,0,0,0-1,0c-1.1.3-2.12.55-3,.75a20.39,20.39,0,0,0-3,.9,5.1,5.1,0,0,1-2.14.3,6,6,0,0,1-2.22-.6c-.3-.2-.54-.18-.71,0a1.7,1.7,0,0,0-.34.72q-.07,1.88-.15,3.45t-.3,3.45a2,2,0,0,1-.64,1.13c-.27.2-.71.12-1.31-.23l-2.25-2.4c-1.36-.7-2.57-1.36-3.65-2s-2.31-1.41-3.71-2.37a11.2,11.2,0,0,0-1.61-1.38,4.3,4.3,0,0,0-1.69-.57,4,4,0,0,1-2.18-2.36,4.13,4.13,0,0,1,.37-2.74,4.26,4.26,0,0,1,.49-1.65q.35-.52,1.77-.45a7.87,7.87,0,0,0,5.18-1.8,31.38,31.38,0,0,0,5.18-4.66,11.56,11.56,0,0,0,.26-2.66c0-.83,0-1.69,0-2.59q-.37-1.12-.87-1.17a4,4,0,0,0-1.39.27L59,305.38a4.53,4.53,0,0,1-3.45.41,6.61,6.61,0,0,1-3.3-2.51,5.93,5.93,0,0,1-.3-2.59q.13-1.17.3-2.52a3.05,3.05,0,0,1,1.27-.64,2.56,2.56,0,0,1,1.43,0c1.15.7,2.71.58,4.69-.38a13.4,13.4,0,0,0,4.77-3.67,8.41,8.41,0,0,0,.41-4.13,18.38,18.38,0,0,1-.26-4q.3-3.75,3.11-3.72t2.89,3.87c0,.5-.11,1-.19,1.5a2.81,2.81,0,0,0,.34,1.65,8.48,8.48,0,0,0,1.77,1.84,24.91,24.91,0,0,1,2,1.76c.65,0,1.16-.09,1.53-.14a4.63,4.63,0,0,1,1.77.3,2.28,2.28,0,0,0,1.2-.6,1.86,1.86,0,0,0,.45-1.36,7.56,7.56,0,0,1-.11-2.25,11.51,11.51,0,0,0,0-2.4,3.56,3.56,0,0,1,.56-2,2.24,2.24,0,0,1,2-.82,2.57,2.57,0,0,1,1.88,1.91,11.08,11.08,0,0,1,.37,2.74,14.6,14.6,0,0,1,.23,1.65,2.39,2.39,0,0,0,1,1.65,17.77,17.77,0,0,1,2.33-.15,5.82,5.82,0,0,0,2.48-.6,14.49,14.49,0,0,0,2.48-5.36c.35-1.73.67-3.59,1-5.6a7,7,0,0,1,.11-1.2A1.67,1.67,0,0,1,94.4,277ZM63.18,318.14l-.76.15a22.39,22.39,0,0,0-2.7,2.18c-.85.8-1.65,1.57-2.4,2.32-.45.45-.66.82-.64,1.09s.34.61.94,1a8,8,0,0,0,3,.53,3.75,3.75,0,0,0,3-1.43q.15-1.2.33-3.3T63.18,318.14Zm25.22-26c-1.65.14-2.68.7-3.08,1.65a8.09,8.09,0,0,0-.53,3.45c-.15.6-.33.93-.56,1A2.65,2.65,0,0,1,83,298c-.55-.8-1.07-1.2-1.57-1.2a3,3,0,0,0-1.73.75,6.44,6.44,0,0,1-2.63.75c-.7,0-1.52-.6-2.47-1.8-.3-.45-.54-.63-.72-.53a2.33,2.33,0,0,0-.64.83c-.4.45-.8.86-1.2,1.24s-.85.76-1.35,1.16a4,4,0,0,0-2,2.37,13.8,13.8,0,0,0-.11,2.74c.1.45.25.72.45.82s.5,0,.9-.37l3.15-2.4c.61-.66,1-.79,1.13-.42a2.69,2.69,0,0,1-.07,1.62c-1,1.4-2,2.75-3,4.05a25.42,25.42,0,0,0-2.81,4.2,23.48,23.48,0,0,0-.49,4.24,37.89,37.89,0,0,0,.19,4.32c.1.55.29.89.56,1s.69,0,1.24-.41,1.24-.89,1.92-1.31a5.09,5.09,0,0,1,2-.79,1.4,1.4,0,0,1,.93.45,2.52,2.52,0,0,0,1.17.6,14.25,14.25,0,0,0,3.82-.71,42.14,42.14,0,0,0,4-1.54c.8-.85,1.08-1.6.83-2.25s-.88-.85-1.88-.6q-6.15,0-7.17-5.93c-.67-4,1.07-6.23,5.22-6.84a9.52,9.52,0,0,0,2.78-.9c.9-.45,1.87-.9,2.93-1.35A9.45,9.45,0,0,0,89,296.14a5.24,5.24,0,0,0,.56-3.83Zm9.46,8.55a1.28,1.28,0,0,0-.6-1.27,1.81,1.81,0,0,0-1.36-.08,58.31,58.31,0,0,0-6.23,2.07,23.24,23.24,0,0,0-6.23,3.94c-.45.25-.62.5-.52.75s.37.4.82.45a20.92,20.92,0,0,0,4.32-1.2A29.2,29.2,0,0,1,92.45,304c.55-.1.93,0,1.13.26s.12.69-.23,1.24a10.48,10.48,0,0,1-1,.56l-.79.34a35.76,35.76,0,0,1-4.62,1.46,15.42,15.42,0,0,1-4.54.34,4.48,4.48,0,0,0-.71,3.08c.12,1.15.66,1.67,1.61,1.57a42.21,42.21,0,0,0,4.81-1.61c1.4-.57,3-1.24,4.65-2a7,7,0,0,0,3.53-3.83A29,29,0,0,0,97.86,300.72Zm-2.86,23,2.41-.15a3.69,3.69,0,0,1,2.89,1,19.2,19.2,0,0,0,3,2.14,15.22,15.22,0,0,1,2.33,2.77,18.73,18.73,0,0,1,1.57,2.93c.35,1.25.13,2.05-.67,2.4a3.07,3.07,0,0,1-2.63-.15c-1-.8-2-1.44-2.7-1.91a8.72,8.72,0,0,0-2.7-1.09,26.91,26.91,0,0,0-3-2.85,28.56,28.56,0,0,0-3-2.1c-1.4-1.51-1.26-2.39.41-2.67S95.25,323.64,95,323.69Z"/><path class="cls-2" d="M136.17,278.2c.7-.85,1.33-1.22,1.88-1.12a17.33,17.33,0,0,1,2,.52,5.5,5.5,0,0,1,2,.38,8.1,8.1,0,0,1,2.1,1.27,4.8,4.8,0,0,1,.6,3.42,5.34,5.34,0,0,1-2.55,3q-2.34,1.13-4.36,2t-4.35,2.06c-.55.25-.86.48-.94.68s.14.42.64.67a2.93,2.93,0,0,1,.94.68,1.53,1.53,0,0,0,1,.52,19.77,19.77,0,0,0,3.38-1.42,20.92,20.92,0,0,0,3.53-2.33,2.8,2.8,0,0,1,2.06-1.2,21.67,21.67,0,0,1,2.44-.15,2.37,2.37,0,0,1,2.14,1.31,3.23,3.23,0,0,1-.34,2.59,26.1,26.1,0,0,1-3,3.08q-1.62,1.43-3.34,2.78c-1,.75-1.39,1.55-1.17,2.4s.91,1.25,2.07,1.2a3.83,3.83,0,0,1,3.38-.3,13.55,13.55,0,0,1,3.52,1.5c.4.25.59.52.57.79s-.27.56-.72.87c-1.45.6-2.84,1.21-4.16,1.83s-2.74,1.37-4.24,2.22c-1,.25-1.54.7-1.62,1.35a12.07,12.07,0,0,0,0,2.1c-.05.45,0,.68.23.68a2.29,2.29,0,0,0,.82-.23c.46-.4.87-.73,1.24-1s.77-.54,1.17-.79.92-.21,1.12,0a1.05,1.05,0,0,1,.23.94,11.12,11.12,0,0,1-2.4,3.38,23.54,23.54,0,0,0-3,3.68,61.42,61.42,0,0,0-.18,7.17q.1,3.57,0,7.69a2.13,2.13,0,0,1-.78,1.39c-.43.33-1,.21-1.62-.34l-3.75-4.05a6,6,0,0,1-.64-2,13.17,13.17,0,0,0-.41-2,1.77,1.77,0,0,0-.6-.87c-.25-.17-.6-.14-1,.11-1.11.81-2.08,1.54-2.93,2.22a14.36,14.36,0,0,0-2.63,2.89c-.55.6-1.06.84-1.54.71a1.88,1.88,0,0,1-1.16-1.16,8.55,8.55,0,0,1-1.54-4.73,9.44,9.44,0,0,1,1.54-4.73l3.9-4.35a2.93,2.93,0,0,0,.23-.87c0-.17-.18-.23-.53-.19a30.39,30.39,0,0,1-3.6,1.17c-1.1.27-2.25.59-3.46.94a4,4,0,0,1-3.71-1.28,4.08,4.08,0,0,1-.64-3.83,2.6,2.6,0,0,1,.11-1.5,6.15,6.15,0,0,1,3-2.1q.9-.15,1.35,1.2a1.18,1.18,0,0,0,.83.83,2.94,2.94,0,0,0,1.13.07,25.6,25.6,0,0,0,2.77-.9,22.92,22.92,0,0,1,2.93-.9c.8-.4,1.73-.85,2.78-1.35a7.4,7.4,0,0,0,2.48-1.8c-.55.2-1.33.52-2.33,1s-1.13.18-.38-.82c1.51-1.25,2.77-2.37,3.79-3.34a4.47,4.47,0,0,0,1.32-3.87,15,15,0,0,1-1-1.24,2.4,2.4,0,0,1-.49-1.16l-.3-3.16a2.21,2.21,0,0,0-.64-1.38c-.33-.28-.76-.22-1.31.18a3.21,3.21,0,0,1-2.37.3,6.53,6.53,0,0,1-2.29-1.05,3.56,3.56,0,0,1-.41-3,4.89,4.89,0,0,1,1.91-2.89,10.65,10.65,0,0,1,2-.9,8.7,8.7,0,0,0,1.92-.9c.95-.65,1.92-1.34,2.92-2.07A10.86,10.86,0,0,0,136.17,278.2Zm-14,14.27.15-.46a.65.65,0,0,1,.94-.33,3.52,3.52,0,0,1,1.16.79,5.28,5.28,0,0,0,.94,1.53,1.35,1.35,0,0,0,1.46.42c.75-.05,1.19.17,1.32.67a14.65,14.65,0,0,0,.48,1.58,19,19,0,0,1-.6,2.36,15.08,15.08,0,0,1-1,2.44,3.44,3.44,0,0,1-4.24-.41,4.49,4.49,0,0,1-1.91-4.09,5.18,5.18,0,0,1-.08-2.29A7.16,7.16,0,0,1,122.21,292.47ZM142,290.66l-.45.15a9.05,9.05,0,0,0-1.84,1.36,5.87,5.87,0,0,0-1.32,1.95q-.3.83.12,1.05t1.23-.3c.5-.55,1.13-1.32,1.88-2.29S142.53,291,142,290.66Zm18.91-12.31c1.8-.6,3.07-.52,3.79.23s.92,2,.57,3.83c-1.05,2.65-2.06,5.19-3,7.61a20.36,20.36,0,0,0-1.35,7.85c.55.9,1.17,1.8,1.84,2.7a7.08,7.08,0,0,1,1.32,2.71c-.6,2.35-1.21,4.56-1.81,6.64s-1.35,4.32-2.25,6.72a2.59,2.59,0,0,0,0,1.65,4.61,4.61,0,0,0,1.46,1.2,22.31,22.31,0,0,1,4,1.88,16.37,16.37,0,0,1,3.83,3.37l.9,1.51q1.5,3.08-.82,5.14a7.49,7.49,0,0,1-5,2.06,22.63,22.63,0,0,0-6.5-.11,32.27,32.27,0,0,0-6.72,1.76,1.22,1.22,0,0,1-1.42-.3,1.26,1.26,0,0,1-.08-1.5,2.62,2.62,0,0,1,.83-1.46,6.64,6.64,0,0,0,1.12-1.39,4.08,4.08,0,0,1,1.62-1.69,16.33,16.33,0,0,1,2-.86,9.72,9.72,0,0,0,1.35-.57,10.31,10.31,0,0,0,1.5-.93,7.75,7.75,0,0,0,1.31-1.84c.18-.43-.16-.92-1-1.47a9.32,9.32,0,0,1-2.44-3.71,5.2,5.2,0,0,1,.34-3.79c.7-2.51,1.35-4.93,2-7.28a35.12,35.12,0,0,0,1-7.29,9.22,9.22,0,0,1-1.84-3.56,7.75,7.75,0,0,1,.34-3.49q.68-3.15,1.31-6a34.19,34.19,0,0,0,.79-6,7.57,7.57,0,0,1-.64-1.09,1,1,0,0,1,0-1Z"/><path class="cls-2" d="M204.21,274.45l1-.15a3.47,3.47,0,0,1,2.26,3,6.86,6.86,0,0,1-1.06,3.86c0,.51-.11,1-.18,1.36a6.3,6.3,0,0,1-.57,1.5,1.58,1.58,0,0,0,.08,1.46c.25.33.67.34,1.27,0,.91-.7,1.78-1.43,2.63-2.18A17.68,17.68,0,0,0,212,280.9a1.7,1.7,0,0,0,.26-1.2c-.07-.35-.41-.65-1-.9-.35-.4-.49-.72-.41-1s.36-.48.86-.68a12.14,12.14,0,0,1,3.19-.41A3.71,3.71,0,0,1,218,278.2a14.09,14.09,0,0,1,.14,2,3.84,3.84,0,0,1-.75,2.07l-.3.3a6.8,6.8,0,0,1-1.65,1.87c-.6.45-1.2.88-1.8,1.28q-.67.45-1.5.9a8,8,0,0,0-1.5,1.05c-.5.3-.73.6-.68.9s.33.45.83.45a2.41,2.41,0,0,1,1.73-.11,18.12,18.12,0,0,0,1.87.41c1.15.5,1.71,1.14,1.69,1.92s-.64,1.39-1.84,1.84l-3.9,1.35c-.6.3-.83.59-.68.86a2.17,2.17,0,0,0,1,.79l1.2.45a5.36,5.36,0,0,0,1.35.3,6,6,0,0,1,2.55.75,4.25,4.25,0,0,1,2.11,2.25,2.54,2.54,0,0,1-1.06.83c-.45.2-.9.42-1.35.67-.65.2-1,.47-1.16.79s.11.82.71,1.47a54.37,54.37,0,0,0,5.3,3.79,50.46,50.46,0,0,0,5.51,3c1.55.3,3,.62,4.43.94a33.59,33.59,0,0,1,4.58,1.46c.9.45,1.39,1,1.46,1.65s-.36,1.21-1.31,1.66a29.12,29.12,0,0,1-5.14.41,45.21,45.21,0,0,1-5.22-.41,9.56,9.56,0,0,1-3.26-1.58c-1-.75-2.14-1.63-3.34-2.63-.5-.45-.81-.58-.91-.41s-.05.46.16.86a7.06,7.06,0,0,1,.48,2.1,4.83,4.83,0,0,1-.64,2.26l-.75,1.5A52.45,52.45,0,0,0,215.1,326q-.3,3.72-.23,7.92a5.63,5.63,0,0,1-.26,2,3.8,3.8,0,0,1-1.24,1.88,4.87,4.87,0,0,1-2.48-.72,20.31,20.31,0,0,1-2.32-1.84l-1.2-.45a9.07,9.07,0,0,1-4.77-2,18.6,18.6,0,0,1-3.94-4.58c-.3-.55-.6-.74-.9-.56a5.3,5.3,0,0,0-1,.86l-.3.3q-3,5.4-6.87,6.9a42.65,42.65,0,0,1-8.3,2.26,3.64,3.64,0,0,1-1.73-.68,4,4,0,0,1-1.12-1.58,3.53,3.53,0,0,1,1.2-2.17,6.85,6.85,0,0,1,2.25-1.43,16.53,16.53,0,0,0,8.18-4.65,40,40,0,0,0,5.93-8.11c.16-.4.14-.68,0-.83a1.07,1.07,0,0,0-.72-.22,2.23,2.23,0,0,1-1.46,0,1.36,1.36,0,0,1-.94-1.16c-.15-.4-.28-.63-.41-.68s-.34.13-.64.53c-.85,1.35-1.69,2.62-2.51,3.83a11.87,11.87,0,0,1-3.49,3.22,32,32,0,0,1-2.74,2.22,16.35,16.35,0,0,1-2.82,1.54,11.45,11.45,0,0,1-3.94.45,5.35,5.35,0,0,1-3.87-1.65,8.74,8.74,0,0,1,.19-2.22,3.21,3.21,0,0,1,1-2,1.23,1.23,0,0,1,1.08,0,2.41,2.41,0,0,0,1.17.26,13.21,13.21,0,0,0,6.12-4,24,24,0,0,0,4.24-6.38.85.85,0,0,0,0-.9q-.25-.3-.72,0a11.83,11.83,0,0,1-2.58.3,4.2,4.2,0,0,1-2.37-.75,4.48,4.48,0,0,1-.56-2.55c.07-.85.16-1.75.26-2.7a1.86,1.86,0,0,1,1.43-1.28,2.63,2.63,0,0,1,1.87.23,5.91,5.91,0,0,0,3,.75,5.22,5.22,0,0,0,2.82-1.05,2,2,0,0,1,.49-1,12,12,0,0,0,1-.93q.68-.75.45-1.17c-.15-.27-.55-.39-1.2-.34a14.71,14.71,0,0,1-2.78.53,6.08,6.08,0,0,1-2.92-.83c-.91-.5-1.38-1-1.43-1.54a2.42,2.42,0,0,1,.83-1.76,2.91,2.91,0,0,0,.6-1.2q.06-.52.15-1.05.38-.75.78-.75a2.75,2.75,0,0,1,.87.15,6,6,0,0,0,1.87.67,7.79,7.79,0,0,0,1.88.08c.85-.25,1.77-.49,2.78-.71a4.09,4.09,0,0,0,2.47-1.69,58.16,58.16,0,0,0,2.93-7.21q1.13-3.45,2.63-7.36A6.52,6.52,0,0,1,202,276,5.66,5.66,0,0,1,204.21,274.45ZM186.8,280.6a1.74,1.74,0,0,1,2.36-.45,5.54,5.54,0,0,1,2,2.11,5.14,5.14,0,0,0,1.09,1.61,2.84,2.84,0,0,0,1.91.34.87.87,0,0,1,.79.26,2.73,2.73,0,0,1,.57.94,8.24,8.24,0,0,1-.12,3.75,5,5,0,0,1-2.59,3.15A5.07,5.07,0,0,1,188,290a9.79,9.79,0,0,1-1.84-5,5.78,5.78,0,0,1-.38-2.22A4.82,4.82,0,0,1,186.8,280.6Zm13.51,25.53-1.65.6a5.26,5.26,0,0,0-2.11,1,6.73,6.73,0,0,0-1.35,2.18c-.14.25-.32.6-.52,1.05a1.44,1.44,0,0,0,.07,1.35,2.91,2.91,0,0,0,2,.27q.72-.27,2.07-.87a3.38,3.38,0,0,0,1.72-1.05,2.33,2.33,0,0,0,.38-1.8,2.44,2.44,0,0,1,.26-1.84C201.5,306.46,201.21,306.18,200.31,306.13ZM202,298a.74.74,0,0,0-.79.22,5,5,0,0,0-.71.83,2.33,2.33,0,0,0-.6,1.28c-.05.45.3.57,1,.37l1.05-.15a1.13,1.13,0,0,0,.9-1.42C202.71,298.45,202.41,298.07,202,298Zm6.31,15a11.91,11.91,0,0,0-1.5.6,3.37,3.37,0,0,0-1.21,1.21,32.19,32.19,0,0,0-2.32,3.19c-.65,1-1.43,2.16-2.33,3.41a3.6,3.6,0,0,0-.67,1.65,3.05,3.05,0,0,0,.52,1.8q2.25,2.72,4.8,2.22a4.14,4.14,0,0,0,3.31-3.42l.9-6c.15-.7.29-1.49.41-2.37a4,4,0,0,0-.26-2.29Zm.15-9.6c-.6.15-1.26.33-2,.56a10.76,10.76,0,0,0-2.1.94,1.83,1.83,0,0,0-.67.71c-.05.18.12.34.52.49l.9.15a4.47,4.47,0,0,1,2.14.56c.53.33,1.17.74,1.92,1.24a5.84,5.84,0,0,1,3.11.3,29,29,0,0,1,3,1.8.81.81,0,0,0,.56.08c.13-.05.14-.18,0-.38q-1.57-1.8-3.6-4.24C211,304,209.67,303.28,208.42,303.43Zm-.3-8a14.46,14.46,0,0,0-1.77.49,1.72,1.72,0,0,0-1.24,1.16c1.4,1.25,2.59,1.74,3.57,1.46s.89-1.31-.26-3.11Z"/><path class="cls-2" d="M68.48,245.27h-7v1.39a49.44,49.44,0,0,1-.35,5.92,34.08,34.08,0,0,1-2.2,8.56c-.06.2-.12.29-.16.29a.74.74,0,0,1-.29-.19,1.25,1.25,0,0,0-.66-.32,26.78,26.78,0,0,0,2.31-8.67c.22-2.24.33-4.11.33-5.59l-.08-6.54a.18.18,0,0,1,.2-.19l3.71.07h4.21l3.71-.07a.17.17,0,0,1,.19.19L72.3,242v1.24l.08,1.89a.17.17,0,0,1-.19.19Zm.22-7.86H63.35l-4,.07a.17.17,0,0,1-.19-.19v-.7a.17.17,0,0,1,.19-.19l4,.06H68.7l4-.06a.17.17,0,0,1,.19.19v.7a.17.17,0,0,1-.19.19ZM61.14,253.8a17,17,0,0,0,2.11-3.13c.25-.49.58-1.26,1-2.29a7.7,7.7,0,0,0,.46-2.08l1,.37a.29.29,0,0,1,.19.26,1.09,1.09,0,0,1-.28.4,13.83,13.83,0,0,0-.62,1.29l-.44.86h3.84c.21-.41.43-.89.66-1.45a8.43,8.43,0,0,0,.5-1.73c.26.1.54.22.86.37.15.08.22.16.22.26a.4.4,0,0,1-.19.31.89.89,0,0,0-.31.38c-.06.16-.22.5-.48,1-.16.35-.3.62-.41.81h.91l2.93-.07a.18.18,0,0,1,.2.2v.53c0,.13-.07.19-.2.19l-2.93-.06h-1.1v2.81h.53l2.84-.07c.13,0,.19.07.19.2v.53a.17.17,0,0,1-.19.19l-2.84-.06h-.53v2.82h.53l2.84-.06a.17.17,0,0,1,.19.19v.53a.17.17,0,0,1-.19.19l-2.84-.06h-.53v3.1H70l3-.07a.18.18,0,0,1,.2.2v.56c0,.13-.07.19-.2.19l-3-.06H64.3v2.11c0,.14-.06.21-.19.21h-.6c-.13,0-.19-.07-.19-.21l.06-2.74v-6.08c0-1.23,0-2.16,0-2.81A16.29,16.29,0,0,1,62.09,254c-.12.17-.2.25-.24.25s-.15-.07-.32-.22A2.87,2.87,0,0,0,61.14,253.8Zm.32-12.89v3.44h9.86v-3.44Zm2.84,9.36v2.81h3.87v-2.81Zm0,3.6v2.82h3.87v-2.82Zm0,3.61v3.1h3.87v-3.1Zm6.84,6a18.43,18.43,0,0,0,5.6-3.34,4.29,4.29,0,0,0,.82-1.08,6.4,6.4,0,0,1,.85.63c.15.15.23.27.23.36s-.09.2-.26.27a1.92,1.92,0,0,0-.69.42,24.56,24.56,0,0,1-5.36,3.43.87.87,0,0,1-.3.12c-.07,0-.18-.1-.33-.31A2.17,2.17,0,0,0,71.14,263.48ZM82,241.19l3.47-.07c.13,0,.19.07.19.2l-.06,4v8.35l.06,4a.17.17,0,0,1-.19.19L82,257.74H78.32l-3.47.06a.17.17,0,0,1-.19-.19l.06-4v-8.35l-.06-4c0-.13.06-.2.19-.2l3.27.07a29.25,29.25,0,0,0,1.42-3.84H78l-4,.08c-.12,0-.19-.07-.19-.21v-.69a.18.18,0,0,1,.19-.2l4,.07H83.3l4-.07a.18.18,0,0,1,.21.2v.69a.19.19,0,0,1-.21.21l-4-.08H80.62c-.5,1.52-1,2.8-1.42,3.84Zm2.61.92H75.7v4.19h8.92Zm-8.92,5.11v4.18h8.92v-4.18Zm8.92,9.6v-4.5H75.7v4.5ZM81.69,260c-.07-.07-.1-.11-.1-.15s.12-.15.36-.3a1.8,1.8,0,0,1,.43-.28.24.24,0,0,1,.13.08,15.71,15.71,0,0,0,5.68,4,2.33,2.33,0,0,0-.53.5c-.15.19-.26.29-.33.29A1,1,0,0,1,87,264,21.68,21.68,0,0,1,81.69,260Z"/><path class="cls-2" d="M93,249.11a24.93,24.93,0,0,0,9.42-7.65,4.85,4.85,0,0,0,.72-1.53,6.34,6.34,0,0,1,.94.47c.15.12.22.21.22.29s-.11.27-.34.4a3.91,3.91,0,0,0-.72.82c-.33.48-.66.91-1,1.29h9.17a2.65,2.65,0,0,0,.73-.09l.24-.07c.15,0,.36.14.61.41s.34.38.34.51a.36.36,0,0,1-.26.37,3.29,3.29,0,0,0-.87.7,44.22,44.22,0,0,1-5,4.48,50.43,50.43,0,0,0,13.94,4.55,2,2,0,0,0-.6.63c-.11.24-.21.35-.31.35l-.27,0a54.35,54.35,0,0,1-13.65-4.89,29,29,0,0,1-6.13,3,79.86,79.86,0,0,1-7.68,2.34,1.89,1.89,0,0,1-.32,0c-.08,0-.19-.1-.3-.32a1.39,1.39,0,0,0-.57-.53q9-2,14-5.15a24.06,24.06,0,0,1-5.11-4.19,31.87,31.87,0,0,1-6.08,4.29.87.87,0,0,1-.32.15c-.07,0-.17-.08-.31-.25A2.55,2.55,0,0,0,93,249.11Zm.9-9.91v5.22c0,.13-.06.2-.19.2H93a.18.18,0,0,1-.21-.2l.09-3.36v-1l-.09-1.61a.18.18,0,0,1,.2-.2l4.77.07h7.33V236.5a9.12,9.12,0,0,0-.23-2.12,10.81,10.81,0,0,1,1.29.16c.22.05.32.13.32.25a2.18,2.18,0,0,1-.19.59,3.59,3.59,0,0,0-.16,1.26v1.68H114l4.78-.07c.13,0,.19.07.19.2l-.08,1.42v1.19l.08,3.36a.18.18,0,0,1-.21.2h-.66c-.13,0-.19-.07-.19-.2V239.2Zm19.49,25.15a.18.18,0,0,1-.2-.21V262.5h-14v1.58c0,.14-.06.21-.19.21h-.69a.19.19,0,0,1-.21-.21l.06-4.1v-2.65L98,254.59a.17.17,0,0,1,.19-.19l4.4.06h7l4.41-.06a.17.17,0,0,1,.19.19l-.06,2.49V260l.06,4.13a.19.19,0,0,1-.21.21Zm-14.22-9v6.2h14v-6.2Zm2.29-11.29-.59.66a23.06,23.06,0,0,0,5.42,4.2,31.62,31.62,0,0,0,5.42-4.86Z"/><path class="cls-2" d="M129.67,259.64V249.08a40.61,40.61,0,0,1-4.32,4.38.83.83,0,0,1-.29.2s-.15-.08-.3-.23a1.85,1.85,0,0,0-.7-.42,32.08,32.08,0,0,0,5.58-5.45,17.33,17.33,0,0,0-.19-1.85,8.66,8.66,0,0,1,1.32.16l.13.06a37.46,37.46,0,0,0,3.5-5.84h-5.05l-4.47.07a.18.18,0,0,1-.19-.2v-.72a.18.18,0,0,1,.19-.2l4.47.07h5.52c.49-1.14.87-2.12,1.13-2.94a7.39,7.39,0,0,0,.35-1.95,9.53,9.53,0,0,1,1.2.32c.23.1.35.22.35.37s-.11.25-.32.47a3.62,3.62,0,0,0-.53,1.08c-.28.82-.63,1.7-1.05,2.65h12.64l4.46-.07a.19.19,0,0,1,.21.2V240a.19.19,0,0,1-.21.2l-4.46-.07H135.53a41,41,0,0,1-4.76,7.63c0,.34,0,1.06,0,2.18v9.74l.06,4.37c0,.13-.06.2-.19.2h-.81c-.13,0-.19-.07-.19-.2Zm10.09-15h8.66a1.81,1.81,0,0,0,.76-.1.76.76,0,0,1,.29-.1q.24,0,.66.45c.31.37.46.61.46.73s-.12.35-.37.44a4.31,4.31,0,0,0-1.3.72,51.6,51.6,0,0,1-5.23,3.44v2.3h4.36l4.66-.06a.17.17,0,0,1,.19.19v.73a.17.17,0,0,1-.19.19l-4.66-.06h-4.36v3.27l0,4.66a2.09,2.09,0,0,1-.79,1.89,5.68,5.68,0,0,1-2.63.34l-1.67,0a.71.71,0,0,1-.37-.1s-.1-.14-.17-.34a1.87,1.87,0,0,0-.45-.82,30.6,30.6,0,0,0,3.6.19,1.7,1.7,0,0,0,1.11-.25,1.31,1.31,0,0,0,.28-1v-7.84h-4.36l-4.66.06a.17.17,0,0,1-.19-.19v-.73a.17.17,0,0,1,.19-.19l4.66.06h4.36v-1.09a9.65,9.65,0,0,0-.23-2.24l.53.12a2,2,0,0,1,.33.08,33.47,33.47,0,0,0,5.48-3.8h-9l-4.23.06c-.14,0-.21-.06-.21-.19v-.69a.18.18,0,0,1,.21-.2Z"/><path class="cls-2" d="M165.06,243.3h-.82a19.34,19.34,0,0,0,4.47,7.57,1.4,1.4,0,0,0-.6.56c-.12.18-.2.28-.24.28s-.12-.09-.23-.25a23.8,23.8,0,0,1-3.59-6.9q0,6.94.13,14.28c0,1.24,0,2.59.08,4,0,.72,0,1.11,0,1.17a.17.17,0,0,1-.19.19h-.87a.17.17,0,0,1-.19-.19s0-1,0-2.86q.13-8.56.18-16.4a35.85,35.85,0,0,1-5.39,11.82q-.15.27-.24.27s-.13-.09-.27-.27a1.48,1.48,0,0,0-.6-.42,34,34,0,0,0,6.18-12.89h-1.63l-3.47.07c-.13,0-.19-.07-.19-.2v-.63a.17.17,0,0,1,.19-.19l3.47.06h1.82v-4.19a18.72,18.72,0,0,0-.22-3.61,7.88,7.88,0,0,1,1.5.18.19.19,0,0,1,.16.19,1.1,1.1,0,0,1-.21.53,12,12,0,0,0-.16,2.66v4.24h.88l3.47-.06c.14,0,.21.06.21.19v.63a.18.18,0,0,1-.21.2Zm14.7-6.87,3.87-.07c.13,0,.19.07.19.2l-.06,3.53v5.45l.06,3.54a.17.17,0,0,1-.19.19l-3.87-.06H176.1a21.78,21.78,0,0,0,2.77,6.4,32.22,32.22,0,0,0,4.36-3.4,6.2,6.2,0,0,0,1.29-1.65,8.06,8.06,0,0,1,1,.76.7.7,0,0,1,.25.43c0,.12-.13.22-.4.29a4.4,4.4,0,0,0-1.24.83,38.68,38.68,0,0,1-4.73,3.46,21,21,0,0,0,8,6.59,1.82,1.82,0,0,0-.73.53q-.21.27-.3.27a.84.84,0,0,1-.3-.11,22,22,0,0,1-10.93-14.4h-3.6V261.5a48,48,0,0,0,6.18-2.42q0,.41,0,.48a.92.92,0,0,0,0,.18c0,.13,0,.21,0,.26s-.13.22-.4.33c-2.08.92-4.73,1.9-8,3a8.23,8.23,0,0,0-1.45.56,1.13,1.13,0,0,1-.45.23c-.1,0-.21-.11-.34-.34s-.28-.57-.5-1.05a18.85,18.85,0,0,0,3.08-.66c.42-.11.7-.19.83-.24V242.53l-.07-6a.18.18,0,0,1,.19-.2l4.13.07Zm3,.92H171.53v4.89h11.21Zm-11.21,11h11.21v-5.16H171.53Z"/><path class="cls-2" d="M189.9,258.3c1.26-.21,2.09-.37,2.49-.46V237.32c-.56,0-1.06,0-1.5.05h-.45c-.14,0-.21-.06-.21-.19v-.66a.18.18,0,0,1,.21-.2l3.42.07h3.74l3.42-.07a.18.18,0,0,1,.21.2v.66c0,.13-.07.19-.21.19h-.55c-.39,0-.81,0-1.26-.05v22.93l.07,3.57c0,.13-.07.19-.2.19h-.69c-.13,0-.2-.06-.2-.19l.07-3.57v-3.17c-1.91.72-3.83,1.35-5.78,1.88a4.69,4.69,0,0,0-1.45.57.51.51,0,0,1-.34.16c-.07,0-.17-.1-.29-.31A5.53,5.53,0,0,1,189.9,258.3Zm3.47-21v5.92h4.89v-5.92Zm0,6.84V250h4.89v-5.88Zm0,13.45a36.85,36.85,0,0,0,4.89-1.52V251h-4.89Zm13.57-12.76a.51.51,0,0,1,0-.11c0-.05.11-.13.31-.26a1.08,1.08,0,0,1,.36-.18s.09,0,.14.12a22.35,22.35,0,0,1,1.84,4.46.66.66,0,0,1,0,.13c0,.06-.13.15-.4.28a1.14,1.14,0,0,1-.36.14s-.09-.06-.13-.19l-.46-1.49a48.77,48.77,0,0,1-6,.89,2.83,2.83,0,0,0-1.24.27.63.63,0,0,1-.34.17c-.13,0-.23-.12-.29-.36a9.21,9.21,0,0,1-.24-.93l.72,0,.75,0a2,2,0,0,0,.48,0c1-1.32,1.74-2.49,2.35-3.5a33.93,33.93,0,0,0-3.8-4.58.19.19,0,0,1-.07-.13s.1-.13.29-.27a1.37,1.37,0,0,1,.37-.21s.08,0,.13.08l1,1.08a22.39,22.39,0,0,0,2.11-3.89,6.23,6.23,0,0,0,.42-1.38,5.73,5.73,0,0,1,1,.48c.2.14.3.25.3.34s-.09.2-.27.29a2.27,2.27,0,0,0-.53.72c-.17.3-.43.74-.76,1.33-.71,1.27-1.27,2.19-1.68,2.77.65.74,1.31,1.57,2,2.49.6-1,1.16-1.93,1.66-2.91a5.41,5.41,0,0,0,.47-1.35,7,7,0,0,1,.95.51c.21.14.31.26.31.34s-.11.21-.34.36a4.64,4.64,0,0,0-.72,1c-1.59,2.6-3,4.7-4.2,6.31,1.35-.11,3-.32,4.89-.63A21.34,21.34,0,0,0,206.94,244.85Zm-5.62,18.76a10.85,10.85,0,0,0,4.33-2.9,7.48,7.48,0,0,0,1.5-3.34h-4.31V259c0,.14-.06.21-.19.21H202a.18.18,0,0,1-.2-.21l.07-1.84v-2.77a15,15,0,0,0-.2-3.15,4.69,4.69,0,0,1,1.15.18c.23,0,.34.13.34.26a1.15,1.15,0,0,1-.16.43,4.73,4.73,0,0,0-.18,1.78v2.64h4.47a24.49,24.49,0,0,0,.17-3.34,15.51,15.51,0,0,0-.17-2.84,5.56,5.56,0,0,1,1.08.17c.25.08.37.17.37.27a.52.52,0,0,1-.11.32,4.77,4.77,0,0,0-.23,1.58c-.06,2.33-.14,3.84-.23,4.55a8.89,8.89,0,0,1-.62,2.24,9.54,9.54,0,0,1-5,4.68.89.89,0,0,1-.32.11c-.06,0-.18-.08-.34-.24A3.16,3.16,0,0,0,201.32,263.61Zm15.57-19.08a.36.36,0,0,1,0-.13c0-.06.11-.15.34-.28a1.9,1.9,0,0,1,.37-.17s.09,0,.13.11a18.24,18.24,0,0,1,2.14,4.45.29.29,0,0,1,0,.11q0,.1-.39.33a1.41,1.41,0,0,1-.39.14S219,249,219,249l-.5-1.33a54.29,54.29,0,0,1-6.31.83,2.92,2.92,0,0,0-1.26.27.58.58,0,0,1-.32.16c-.13,0-.23-.11-.3-.35-.12-.44-.2-.75-.23-.94l.73,0,.75,0c.65-.89,1.36-1.92,2.15-3.09a31.34,31.34,0,0,0-3.94-5,.24.24,0,0,1-.06-.13s.09-.14.27-.3.32-.25.37-.25.07,0,.12.08l1.13,1.25a23.41,23.41,0,0,0,2.24-4,5.51,5.51,0,0,0,.43-1.4,4.58,4.58,0,0,1,1,.53c.16.12.24.22.24.31s-.09.18-.27.29a6.2,6.2,0,0,0-.52.72q-2.3,3.9-2.58,4.29c.59.7,1.29,1.59,2.08,2.68.54-.89,1.17-2,1.89-3.29a5.72,5.72,0,0,0,.45-1.36,7.85,7.85,0,0,1,1,.52c.2.14.31.25.31.34s-.12.2-.34.35a5.44,5.44,0,0,0-.73,1q-2.22,3.63-4.22,6.37,3.23-.32,5.61-.7A15.84,15.84,0,0,0,216.89,244.53Zm-5.34,15.55v-7a14.19,14.19,0,0,0-.21-2.78,9.45,9.45,0,0,1,1.19.17c.23,0,.34.13.34.27a.65.65,0,0,1-.18.42,6.76,6.76,0,0,0-.19,2.18v3.14h4.81v-2.37a16,16,0,0,0-.19-2.95,4.28,4.28,0,0,1,1.22.21c.23.06.34.15.34.26a.93.93,0,0,1-.15.35,4.75,4.75,0,0,0-.22,1.79v3.13l.06,2a.19.19,0,0,1-.21.21h-.66c-.13,0-.19-.07-.19-.21v-1.58H212.5v2.71l.07,3.66a.18.18,0,0,1-.2.21h-.69c-.13,0-.19-.07-.19-.21Z"/><path class="cls-2" d="M74.27,389.21a9.07,9.07,0,0,1-8.09-4.76q-2.93-4.74-2.93-13.81,0-10,3.07-15.07a9.69,9.69,0,0,1,8.76-5.08q10.82,0,10.81,19.19,0,9.56-3.06,14.54A9.55,9.55,0,0,1,74.27,389.21Zm.6-36.53q-4.31,0-6.71,4.41t-2.4,13.24q0,8,2.3,12.36T74.58,387c2.77,0,4.93-1.46,6.47-4.4s2.31-7.12,2.31-12.57Q83.36,352.69,74.87,352.68Z"/><path class="cls-2" d="M101.81,389.21a9.07,9.07,0,0,1-8.09-4.76q-2.93-4.74-2.92-13.81,0-10,3.06-15.07a9.69,9.69,0,0,1,8.76-5.08q10.81,0,10.81,19.19,0,9.56-3.05,14.54A9.56,9.56,0,0,1,101.81,389.21Zm.6-36.53c-2.87,0-5.1,1.47-6.71,4.41s-2.4,7.36-2.4,13.24q0,8,2.3,12.36t6.53,4.32c2.76,0,4.92-1.46,6.46-4.4s2.31-7.12,2.31-12.57Q110.9,352.69,102.41,352.68Z"/><path class="cls-2" d="M129.36,389.21a9.07,9.07,0,0,1-8.1-4.76q-2.92-4.74-2.92-13.81,0-10,3.07-15.07a9.67,9.67,0,0,1,8.76-5.08q10.8,0,10.8,19.19,0,9.56-3.05,14.54A9.56,9.56,0,0,1,129.36,389.21Zm.6-36.53c-2.88,0-5.11,1.47-6.71,4.41s-2.4,7.36-2.4,13.24q0,8,2.29,12.36t6.53,4.32c2.77,0,4.92-1.46,6.46-4.4s2.31-7.12,2.31-12.57Q138.44,352.69,130,352.68Z"/><path class="cls-2" d="M156.9,389.21a9,9,0,0,1-8.09-4.76q-2.92-4.74-2.93-13.81,0-10,3.07-15.07a9.67,9.67,0,0,1,8.76-5.08q10.8,0,10.81,19.19,0,9.56-3.06,14.54A9.56,9.56,0,0,1,156.9,389.21Zm.6-36.53q-4.31,0-6.71,4.41t-2.4,13.24q0,8,2.29,12.36c1.54,2.88,3.71,4.32,6.53,4.32s4.92-1.46,6.46-4.4S166,375.49,166,370Q166,352.69,157.5,352.68Z"/><path class="cls-2" d="M184.44,389.21a9.06,9.06,0,0,1-8.09-4.76q-2.92-4.74-2.93-13.81,0-10,3.07-15.07a9.69,9.69,0,0,1,8.76-5.08q10.81,0,10.81,19.19,0,9.56-3.06,14.54A9.55,9.55,0,0,1,184.44,389.21Zm.6-36.53q-4.31,0-6.71,4.41t-2.4,13.24q0,8,2.3,12.36t6.52,4.32c2.77,0,4.93-1.46,6.47-4.4s2.31-7.12,2.31-12.57Q193.53,352.69,185,352.68Z"/><path class="cls-2" d="M212,389.21a9.07,9.07,0,0,1-8.09-4.76Q201,379.71,201,370.64q0-10,3.06-15.07a9.69,9.69,0,0,1,8.76-5.08q10.82,0,10.81,19.19,0,9.56-3,14.54A9.57,9.57,0,0,1,212,389.21Zm.6-36.53c-2.87,0-5.1,1.47-6.71,4.41s-2.4,7.36-2.4,13.24q0,8,2.3,12.36T212.3,387c2.76,0,4.92-1.46,6.46-4.4s2.31-7.12,2.31-12.57Q221.07,352.69,212.58,352.68Z"/><path class="cls-2" d="M289.05,261.57a6.17,6.17,0,0,1-2.14,4.29l-17,17q-2.15,2.15-2.15,0V266.75a6.19,6.19,0,0,1,2.15-4.29l6.31-6.31c.26-.91.51-1.84.76-2.81a4.08,4.08,0,0,1,1.13-1.88c1.42-1.41,2.12-1.61,2.12-.61a9.16,9.16,0,0,1-.39,1.67l7.05-7.05q2.14-2.15,2.14,0Zm-3.32-9.27v-2.17c0-.24-.12-.25-.35,0L271.53,264a1.26,1.26,0,0,0-.42.89v2.07Zm0,5.75v-2.62l-14.62,14.62v2.61Zm0,5.37v-2.24l-14.62,14.61v2.35c0,.29.14.3.42,0l13.9-13.9a1.92,1.92,0,0,0,.17-.27A1.09,1.09,0,0,0,285.73,263.42Z"/><path class="cls-2" d="M290,276.58v1.21a110.39,110.39,0,0,1-.42,12.91,12.8,12.8,0,0,1-1.41,4.22,14.93,14.93,0,0,1-2.58,3.42q-3.63,3.63-3.63,2.1a4.26,4.26,0,0,1,1.31-3.11,8,8,0,0,1,1.08-.88,8,8,0,0,0,.94-.79,5.91,5.91,0,0,0,1.36-3.53,45.24,45.24,0,0,0,.32-5.64v-5.57c0-.4-.18-.42-.52-.08l-2.1,2.1a49.32,49.32,0,0,1-2.12,14.84q-2,6.14-3.35,7.47a1.91,1.91,0,0,1-1.18.66c-.38,0-.57-.19-.57-.61a9.33,9.33,0,0,1,.81-2.42l-9.73,11.68-.17.2c-.78.77-1.16.58-1.16-.57a4,4,0,0,1,1.06-2.58l.54-.64V295.29a7.2,7.2,0,0,1,2.49-5l4.88-4.88q2.46-2.46,2.46.05v13.88l.42-.47.08-.07a1.81,1.81,0,0,1,.66-.45h0l.17,0A38.1,38.1,0,0,0,281.28,286l-1.83,1.82c-.72.73-1.08.55-1.08-.51a3.52,3.52,0,0,1,1.13-2.54l1.78-1.78v-3a4.29,4.29,0,0,1,1.57-2.63c1-1,1.48-1.12,1.48-.4v2.94l3.48-3.48Q290,274.26,290,276.58Zm-14.84,15.21v-2.12c0-.28-.16-.27-.47.05l-2.56,2.56a1.43,1.43,0,0,0-.52.94v2.12Zm0,5.84v-2.84l-3.55,3.55v2.84Zm0,5.52v-2.54l-3.55,3.55v3.18Z"/><path class="cls-2" d="M288.91,323.94q-1.79,1.77-6.78,2.34a11.11,11.11,0,0,1,.1,1.58,11.24,11.24,0,0,1-3.36,8.28c-3.35,3.35-5,4.44-5,3.25a4.13,4.13,0,0,1,1.28-3.05,3.7,3.7,0,0,1,.42-.37c1.44-1.17,2.35-1.94,2.73-2.32a4,4,0,0,0,1-3c0-.18,0-.45,0-.79q-3.89,6-7.32,10.57t-4.14,5.28c-.87.87-1.31.73-1.31-.42a3.1,3.1,0,0,1,.79-2,154.47,154.47,0,0,0,11.44-15.87l-.1-.27a.27.27,0,0,1-.05-.13l-.05-.07s-.05,0-.05-.05q-3.57,5.59-6.38,9.37c-1.87,2.51-3.05,4-3.52,4.48-.86.86-1.29.7-1.29-.46a3.31,3.31,0,0,1,1-2.12,118.82,118.82,0,0,0,9-12.38,1,1,0,0,0-.52-.15c-1.47,2.25-3,4.47-4.68,6.63s-2.71,3.5-3.2,4c-.87.87-1.31.7-1.31-.5a3.65,3.65,0,0,1,1-2.16,112.18,112.18,0,0,0,7.15-9.5l-3.8,3.8c-.85.86-1.28.8-1.28-.17a3.78,3.78,0,0,1,1.28-2.66l12.62-12.62c1-1,1.46-1,1.46-.08a4.2,4.2,0,0,1-1.46,2.91l-4.19,4.19a11,11,0,0,1-.59,1.06l-.27.49-.32.57a4.14,4.14,0,0,1,1.48.81,1.29,1.29,0,0,0,1.23.2l.35-.1s1.55-.29,1.92-.39a39.39,39.39,0,0,0,5.74-2.22c.35-.15.52,0,.52.52a5,5,0,0,1-.39,1.67A6.07,6.07,0,0,1,288.91,323.94ZM288,312c-1.22,1.22-1.82,1.46-1.82.72a1.72,1.72,0,0,1,.05-.4,15.8,15.8,0,0,0,.41-2.39c0-.21-.16-.16-.49.17l-15.45,15.46A1.94,1.94,0,0,0,270,327v1.67a4.5,4.5,0,0,1-1.62,2.89c-1,1-1.48,1.06-1.48.22V328.1a5.18,5.18,0,0,1,1.87-3.42l7.79-7.79v-1a4.33,4.33,0,0,1,1.58-2.76c1.1-1.11,1.65-1.26,1.65-.47v1l7.94-7.94c1.38-1.38,2.07-1.5,2.07-.37Q289.77,310.23,288,312Zm-4.56,7.77a2.34,2.34,0,0,1,.41-1.36,35.74,35.74,0,0,0,2.48-4.19,5.35,5.35,0,0,1,1.26-1.61,1.1,1.1,0,0,1,1-.32c.31.1.56.25.49.69a24.77,24.77,0,0,1-2.51,4.71,8.08,8.08,0,0,1-1.63,2.28C284.47,320.32,283.44,320.4,283.41,319.8Z"/><polygon class="cls-1" points="271.56 247.26 258.92 259.89 258.92 221.5 271.56 208.86 271.56 247.26"/><polygon class="cls-1" points="298.84 220.09 286.2 232.73 286.2 194.33 298.84 181.69 298.84 220.09"/><polygon class="cls-1" points="294.82 197.35 263.09 229.19 278.99 197.71 294.82 197.35"/></svg>