<svg id="圖層_1" data-name="圖層 1" xmlns="http://www.w3.org/2000/svg" viewBox="0 0 188 275"><defs><style>.cls-1{fill:none;stroke:#baa544;stroke-miterlimit:10;}</style></defs><title>未命名-1</title><path class="cls-1" d="M170.78,9.5H83.83C81.42,17,79.22,24.66,77.1,32.29,66.25,71.51,60.19,111.71,53.48,151.75c-1,6.21-3.56,11.18-8.16,15.11-6.29,5.38-12.72,10.59-19.23,15.7A10.76,10.76,0,0,0,21.88,191a130.37,130.37,0,0,1-6.25,33.53c-2.35,7.13-2.54,14.17,1.12,21.09,5.88,11.13,15.74,17.06,27.08,21.12a5.12,5.12,0,0,0,5.36-.85h0c2.05-1.29,1.61-3.52,2-5.43h0a8.87,8.87,0,0,1,2.53,0c7.86,2.56,14.32-2.26,21.34-4A3,3,0,0,0,77.56,253c0-.48,0-1,0-1.45h0c1.1-2.51,3.74-2,5.68-2.8,3.82-1.52,7-3.47,7.53-8h0c1.17-4.06-.62-5.36-4.48-5-3.59.35-7.19.67-10.78.67-2.81,0-5.91.79-8.2-1.79h0c-.33-2.91-1.36-5.75-.92-8.75,15-11.35,27.21-24.19,24-45.22-1.25-8.15.59-15.76,4.13-23,2.72-5.58,5.31-11.23,8.25-16.68,15.6-29,32-57.53,46.24-87.18,3.7-7.69,18.94-39.41,27.55-42.27.6-.2,1-.89,1.55-1.35.16-.22.29-.45.43-.67Z"/><path class="cls-1" d="M52.48,260.5a41,41,0,0,1-9.58-6.37,20.31,20.31,0,0,1-5.8-7.78c-1.34-3.62-1.05-7.64-2.05-11.37"/><path class="cls-1" d="M79.05,249.93c-1.52-.24-3.9-.29-5.44-.4-5.34-.38-10.74.22-15.86-1.55a5.1,5.1,0,0,1-1.9-1,4.82,4.82,0,0,1-.91-1.4c-.84-1.77-1.41-5.57-1.68-7.51"/><path class="cls-1" d="M90.3,175.72c2.59,6.15,3.56,8.4,4.2,14.25a63,63,0,0,1,.35,13.58,27.47,27.47,0,0,1-4.38,12.73c-2.23,3.23-5.3,5.78-7.87,8.75s-4.68,6.69-4.37,10.61"/></svg>