<svg id="圖層_1" data-name="圖層 1" xmlns="http://www.w3.org/2000/svg" viewBox="0 0 258 262"><defs><style>.cls-1{fill:#aa3652;}.cls-2{fill:#dc6a81;}.cls-3{fill:#f4f3f1;}.cls-4{fill:#ded7d3;}.cls-5{fill:#de7549;}.cls-6{fill:#e7825d;}.cls-7{fill:#f4af8f;}.cls-8{fill:#c9516c;}.cls-9{fill:#ea977e;}.cls-10{fill:#f7c5ab;}.cls-11{fill:#e68399;}</style></defs><title>title-gift</title><path class="cls-1" d="M109.13,36.45c-4-1.29-14.23,5.73-22.87,5.24s-23-1.89-23.87-9.07C60.11,34.3,60,40.48,59.85,44.31c3,4.84,17.13,5.85,26.81,4,6.25-1.17,21.33-8.75,22.64-10.18S110.42,36.86,109.13,36.45Z"/><path class="cls-2" d="M108,34.11c-9.85-1.7-24.34-17.74-42-9-7,6.23-6.4,15.88-6.09,19.17C60.2,37.53,68,30.2,87.73,38.9c6.25,2.76,11.23,6.82,22.54-1C112.34,36.42,111.21,34.68,108,34.11Z"/><path class="cls-1" d="M110.68,37.19c.73-3.37,9.83-7.72,13-14s8-17,3.28-20.54c2.12-.93,8.43.86,9.29,3,2.42,5.26-2.83,14.47-8,20.56-3.37,3.94-14.85,11.5-16.39,11.85S110.45,38.26,110.68,37.19Z"/><path class="cls-2" d="M109.51,35.4c2.8-7.64-1.89-29,10.74-33.3,7.25-2.43,15.75.94,16,3.49A5,5,0,0,0,132,4c-4.52.62-9.46,5.88-10.88,19.12-.6,5.54.25,10.7-9.89,15.49C109.35,39.44,108.59,37.93,109.51,35.4Z"/><polygon class="cls-3" points="32.18 76.91 102.36 18.48 192.79 30.84 116.84 81.89 32.18 76.91"/><polygon class="cls-4" points="32.18 76.91 116.84 81.89 124.31 100.56 42.14 98.08 32.18 76.91"/><polygon class="cls-5" points="38.74 90.71 121.84 94.51 124.31 100.56 42.14 98.08 38.74 90.71"/><polygon class="cls-4" points="116.84 81.89 192.79 30.84 200.61 49.25 124.31 100.56 116.84 81.89"/><polygon class="cls-6" points="121.84 94.51 196.38 43.88 200.61 49.25 124.31 100.56 121.84 94.51"/><polygon class="cls-6" points="32.18 76.91 42.14 98.08 116.84 43.92 102.36 18.48 32.18 76.91"/><polygon class="cls-7" points="102.36 18.48 192.79 30.84 200.61 49.25 116.84 43.92 102.36 18.48"/><polygon class="cls-1" points="60.72 52.07 72.72 76.91 85.14 69.01 68.63 45.29 60.72 52.07"/><polygon class="cls-8" points="150.36 24.12 156.85 47.55 170.97 48.12 158.54 24.97 150.36 24.12"/><path class="cls-8" d="M69.05,237.89c1.25,4.84,10.72,9.61,18.21,12.1,5.68-.42,10.07-5.3,10.29-6.12S73.71,231.23,71.8,230.73,68.33,235.08,69.05,237.89Z"/><path class="cls-1" d="M144.76,254.15c2,2.94,6,3.51,7.18,3.77,2.19-.17,5.78-1.65,5.9-2.1.8-1.59,2.79-2.87,2-3.66s-2.62-1.31-2.85-1.57S144.76,254.15,144.76,254.15Z"/><polygon class="cls-4" points="112.38 114.4 209.58 148.05 168.59 214.27 106.69 201.03 112.38 114.4"/><polygon class="cls-9" points="112.38 114.4 209.58 148.05 204.09 156.91 111.91 121.56 112.38 114.4"/><polygon class="cls-3" points="48.12 129.48 112.38 114.4 106.69 201.03 55.3 216.8 48.12 129.48"/><polygon class="cls-10" points="48.86 138.49 48.12 129.48 112.38 114.4 111.91 121.56 48.86 138.49"/><polygon class="cls-6" points="48.12 129.48 139.39 162.06 123.99 261.32 44.44 228.26 48.12 129.48"/><polygon class="cls-7" points="139.39 162.06 209.58 148.05 185.28 245.58 123.99 261.32 139.39 162.06"/><path class="cls-11" d="M221.86,238.2c15.7-1.14,14.06-23.89,14.17-29.67,8.33,1.6,4.22,15.11,13,15.48-4.08,4.29-9,9.51-14.51,13.5-6.16,2.76-8.94,2.27-11,1.89C222.2,239.16,220.07,238.32,221.86,238.2Z"/><path class="cls-8" d="M151.94,257.92c4.67-1.11,6.21-2.19,6.34-4.18,1.58-22.78,25.8-40.68,43-27.15,18.82,14.82,29.76,12.59,33.23,10.92-7.56,7.36-24.38,2.35-34.23-.38-11.61-3.23-29.12-4.69-37.16,17.72C161.79,255.78,156,258.32,151.94,257.92Z"/><path class="cls-2" d="M60.08,205.2c-6.44-4.4-20.25-8-27.45-7.74A58.69,58.69,0,0,0,2.26,207.62c8.74,2.28,4.14,16.54,9.46,18.52,2.65-4.56,10.73-17.63,17.68-20.78,6-2.72,19-2.33,24.38-.63C55.94,205.41,59.08,209,60.08,205.2Z"/><path class="cls-1" d="M87.26,250c-18.45-10.41-11.76-26.56-19.53-38.32-9.49-14.34-33.76-11.53-40.67-5.16,9.13-2.58,21.18-1.77,27.06,5.89s6.38,24.72,12.08,29.71C74.39,245.41,78.13,247.85,87.26,250Z"/></svg>