<svg id="圖層_1" data-name="圖層 1" xmlns="http://www.w3.org/2000/svg" viewBox="0 0 1266 517"><defs><style>.cls-1{fill:#025f33;}.cls-2{fill:#0b75b4;}.cls-3{fill:#438c80;}.cls-4{fill:#cd281e;}</style></defs><title>未命名-1</title><path class="cls-1" d="M756.77,348.32q0,17.61-17.62,17.61H599.65q-17.61,0-17.61-17.61V216.11q0-17.61,17.61-17.62h51.83q3.24-7.89,6.28-16.8,2-6.08,9.31-6.07,17.41,0,17.42,12.35c0,1.75-1.09,5.26-3.24,10.52h57.9q17.61,0,17.62,17.62ZM729.43,244.86V227c0-2-.94-3-2.83-3H612.81c-2.29,0-3.44,1.29-3.44,3.85v17Zm0,47.17V270.57H609.37V292Zm0,44.14V317.75H609.37V337q0,3.64,3.44,3.64H727a3.13,3.13,0,0,0,1.42-.81C729.09,339.27,729.43,338.06,729.43,336.17Z"/><path class="cls-1" d="M1010.83,226.84v9.92q0,86.25-3.44,102.65-3.24,16.39-11.54,23.08-8.31,6.88-21.26,6.88-29.76,0-29.77-12.55,0-14.77,10.74-14.78a34.76,34.76,0,0,1,8.9,1.62,30,30,0,0,0,7.7,1.22q8.7,0,11.13-17.82,2.64-17.82,2.64-43.73V237.57q0-4.86-4.26-4.86H964.46q-.81,70.66-17.41,104.47T919.52,371a13.81,13.81,0,0,1-9.72-4.25q-4.66-4.46-4.66-9.72,0-4,6.68-13.16l-80,16a6.18,6.18,0,0,1-1.42.2q-9.51,0-9.51-14.17,0-10.93,8.7-12.55l4.46-.81V203.76q0-20.65,20.45-20.65h40.08q20.25,0,20.25,20.65v114l3.44-.41h.61a10.23,10.23,0,0,1,5.47,1.82l.2.21a8.21,8.21,0,0,1,1.42,1q13.35-24.5,13.36-87.87h-15q-8.91,0-8.91-13.16,0-11.55,9.31-11.54h14.58v-24.3q0-8.7,13-8.7,12.13,0,12.14,8.9v24.1H993Q1010.83,207.81,1010.83,226.84Zm-121.89,3V212.46q0-3.44-3.84-3.44H864q-4.24,0-4.25,3.44v17.42Zm0,48V254.58H859.79v23.28Zm0,45.35V302.36H859.79v26.12Z"/><path class="cls-1" d="M1254.16,352.57q-14.58,0-55.68-36.44a102,102,0,0,1,.81,13.76q0,40.5-27.53,40.5-41.31,0-41.3-14.58T1141,341.23a15.41,15.41,0,0,1,3.45.41q17.8,3.44,22.47,3.44,8.1,0,8.1-16.4,0-2.22-.2-6.68-32,17.42-60.14,26.72t-34,9.32q-10.74,0-10.73-14.18,0-8.7,6.48-9.92a316.1,316.1,0,0,0,93.94-36.44c-.14-.54-.4-1.55-.81-3a4.52,4.52,0,0,1-.4-1.41,6.51,6.51,0,0,1-.41-1,2,2,0,0,1-.4-.81q-29.37,16.61-52.44,24.5t-29,7.9q-10.53,0-10.53-14.38,0-8.3,7.89-9.51,32.6-5.48,73.9-27.74a26.49,26.49,0,0,0-4.25-5.47,242.26,242.26,0,0,1-38.47,16q-20.25,6.48-26.32,6.48-10.73,0-10.73-14.78,0-7.7,8.3-9.52,35.83-7.49,58.72-19.23h-31.18q-10.53,0-10.53-11.95,0-11.34,10.53-11.34h103.66q11.94.21,11.95,11.34,0,12-11.95,11.95H1183.5a27,27,0,0,1-4.86,3.84,22.08,22.08,0,0,1-2.23,1.82,25.81,25.81,0,0,1-2.63,2A135.38,135.38,0,0,1,1185.93,272a35.48,35.48,0,0,0,10.12,11.74c1.49.95,2.18,1.54,2.84,2,.21.16,12.77,10.35,15.79,12.55q18.42,13.37,47.18,28.95,4.25,2.43,4.25,8.51a19.94,19.94,0,0,1-3.24,10.52Q1259.63,351.77,1254.16,352.57Zm-7.69-105.48q-15,0-15-9.12a11.83,11.83,0,0,1,.4-2.83q3.43-11.94,3.44-16.2,0-2.62-4-2.63H1104.34q-5.67,0-5.67,5.47v13.76q0,10.34-13.36,10.33-12.15,0-12.15-10.33V205.78q0-12.75,15.38-12.75h64v-7.9q0-9.72,13-9.72,13.56,0,13.57,9.72V193h65.19q17,0,17,14Q1261.25,247.08,1246.47,247.09Z"/><path class="cls-1" d="M1209,273.42c-.15-3.64,1-6.6,3.37-7.78,12.09-7.39,11.61-5.42,20.32-14.07,2.93-2.9,7.48-3.38,10.4-2.82q4.77.9,8.39,5.71c2.52,3.37,4.57,6.63,4,9.68-.68,3.58-8,10-20.6,18.08-8.51,5.49-8.81,5.48-13.44,5.28C1217.69,286.37,1209.24,278.55,1209,273.42Z"/><rect class="cls-2" x="0.3" y="45.98" width="154.67" height="469.94"/><rect class="cls-3" x="334.15" y="47.34" width="154.67" height="469.94"/><polyline class="cls-4" points="245.93 0.45 51.33 191.21 439.63 189.76"/></svg>